<?xml version="1.0" encoding="UTF-8" standalone="no"?>
<svg
   xmlns:dc="http://purl.org/dc/elements/1.1/"
   xmlns:cc="http://creativecommons.org/ns#"
   xmlns:rdf="http://www.w3.org/1999/02/22-rdf-syntax-ns#"
   xmlns:svg="http://www.w3.org/2000/svg"
   xmlns="http://www.w3.org/2000/svg"
   xmlns:sodipodi="http://sodipodi.sourceforge.net/DTD/sodipodi-0.dtd"
   xmlns:inkscape="http://www.inkscape.org/namespaces/inkscape"
   inkscape:export-ydpi="300"
   inkscape:export-xdpi="300"
   inkscape:export-filename="C:\Users\lukde\Documents\Dean Fam Co\DeanFamCo.ComV2\images\Logo.png"
   width="1.75in"
   height="1.75in"
   viewBox="0 0 44.450001 44.450001"
   version="1.1"
   id="svg8"
   inkscape:version="1.0 (4035a4fb49, 2020-05-01)"
   sodipodi:docname="Logo.svg">
  <title
     id="title871">DeanFabricationCo.Logo</title>
  <defs
     id="defs2">
    <rect
       x="48.910325"
       y="8.1517208"
       width="9.1539817"
       height="12.093947"
       id="rect40" />
    <rect
       x="19.777946"
       y="9.0203468"
       width="6.8153731"
       height="10.623964"
       id="rect34" />
    <rect
       x="18.575233"
       y="6.614921"
       width="8.0849034"
       height="13.563929"
       id="rect28" />
    <rect
       x="18.775685"
       y="24.588797"
       width="8.018086"
       height="12.895755"
       id="rect22" />
    <rect
       x="18.64205"
       y="6.3476514"
       width="7.9512686"
       height="14.031651"
       id="rect16" />
  </defs>
  <sodipodi:namedview
     id="base"
     pagecolor="#ffffff"
     bordercolor="#666666"
     borderopacity="1.0"
     inkscape:pageopacity="0.0"
     inkscape:pageshadow="2"
     inkscape:zoom="4.9821429"
     inkscape:cx="152.4435"
     inkscape:cy="83.993222"
     inkscape:document-units="in"
     inkscape:current-layer="layer1"
     inkscape:document-rotation="0"
     showgrid="false"
     units="in"
     inkscape:showpageshadow="false"
     borderlayer="false"
     inkscape:window-width="1920"
     inkscape:window-height="1027"
     inkscape:window-x="-8"
     inkscape:window-y="-8"
     inkscape:window-maximized="1" />
  <metadata
     id="metadata5">
    <rdf:RDF>
      <cc:Work
         rdf:about="">
        <dc:format>image/svg+xml</dc:format>
        <dc:type
           rdf:resource="http://purl.org/dc/dcmitype/StillImage" />
        <dc:title>DeanFabricationCo.Logo</dc:title>
      </cc:Work>
    </rdf:RDF>
  </metadata>
  <g
     inkscape:label="Layer 1"
     inkscape:groupmode="layer"
     id="layer1">
    <circle
       r="18.877367"
       style="fill:none;stroke:#000000;stroke-width:1.27000003;stroke-miterlimit:4;stroke-dasharray:none"
       id="path10"
       cx="22.225"
       cy="22.225" />
    <rect
       style="fill:none;stroke:#000000;stroke-width:0.50800001;stroke-miterlimit:4;stroke-dasharray:none"
       id="rect12"
       width="31.464712"
       height="0.24811214"
       x="6.4926443"
       y="22.100945" />
    <text
       xml:space="preserve"
       id="text14"
       style="line-height:1.25;font-family:Pristina;font-size:10.58333357px;-inkscape-font-specification:Pristina;white-space:pre;shape-inside:url(#rect16);" />
    <text
       xml:space="preserve"
       id="text20"
       style="font-size:10.5833px;line-height:1.25;font-family:Pristina;-inkscape-font-specification:Pristina;white-space:pre;shape-inside:url(#rect22);" />
    <text
       xml:space="preserve"
       id="text26"
       style="font-size:10.5833px;line-height:1.25;font-family:sans-serif;-inkscape-font-specification:sans-serif;white-space:pre;shape-inside:url(#rect28);font-weight:normal;font-style:normal;font-stretch:normal;font-variant:normal;"><tspan
         style="visibility:hidden"
         x="18.576172"
         y="29.835153"><tspan
           style="font-style:normal;font-variant:normal;font-weight:normal;font-stretch:normal;font-family:sans-serif;-inkscape-font-specification:sans-serif">D</tspan></tspan></text>
    <text
       xml:space="preserve"
       id="text32"
       style="font-size:10.5833px;line-height:1.25;font-family:Pristina;-inkscape-font-specification:Pristina;white-space:pre;shape-inside:url(#rect34);" />
    <text
       xml:space="preserve"
       id="text38"
       style="font-style:normal;font-variant:normal;font-weight:normal;font-stretch:normal;font-size:10.5833px;line-height:1.25;font-family:sans-serif;-inkscape-font-specification:sans-serif;white-space:pre;shape-inside:url(#rect40);"
       transform="matrix(0.97679169,0,0,1.1553563,-29.734573,-1.5243637)"><tspan
         x="48.910156"
         y="17.807809"><tspan
           style="font-style:normal;font-variant:normal;font-weight:normal;font-stretch:normal;font-family:sans-serif;-inkscape-font-specification:sans-serif">D</tspan></tspan></text>
    <text
       xml:space="preserve"
       style="font-style:normal;font-variant:normal;font-weight:normal;font-stretch:normal;font-size:12.9309px;line-height:1.25;font-family:sans-serif;-inkscape-font-specification:sans-serif;stroke-width:0.323274"
       x="16.750858"
       y="36.262753"
       id="text46"
       transform="scale(1.0575319,0.94559794)"><tspan
         sodipodi:role="line"
         id="tspan44"
         x="16.750858"
         y="36.262753"
         style="font-style:normal;font-variant:normal;font-weight:normal;font-stretch:normal;font-family:sans-serif;-inkscape-font-specification:sans-serif;stroke-width:0.323274">F</tspan></text>
    <path
       style="fill:#ececec;stroke:#000000;stroke-width:0.385376"
       d="m 79.583286,152.70776 c -4.207144,-0.40178 -5.382787,-0.5432 -7.337253,-0.88258 C 60.152346,149.72515 49.027319,144.49016 39.339558,136.34071 36.995964,134.36926 32.327346,129.57547 30.37869,127.1396 22.051069,116.72985 17.229057,105.0759 15.515965,91.219028 15.170948,88.428243 15.176354,79.543412 15.52482,76.667057 17.150939,63.244528 21.709459,52.092937 29.924337,41.441251 32.20862,38.479373 38.471619,32.214345 41.447085,29.914769 51.799131,21.914237 62.757144,17.365831 75.893813,15.616768 c 3.621243,-0.482145 12.586239,-0.481645 16.234275,9.06e-4 13.291022,1.758094 24.863192,6.645253 35.102572,14.82452 2.78964,2.228378 8.68008,8.205715 10.83922,10.999123 8.25311,10.677558 12.71801,21.62153 14.41227,35.326099 0.34157,2.762955 0.34157,11.688657 0,14.451612 -1.26473,10.230112 -4.0439,18.778302 -8.78523,27.021642 -1.47535,2.56505 -4.14355,6.47822 -6.06775,8.89893 -1.96047,2.46633 -8.0174,8.52326 -10.48374,10.48373 -11.03466,8.77137 -23.80909,13.8405 -37.827377,15.01058 -2.225182,0.18574 -8.096812,0.23028 -9.734767,0.0739 z m -2.408603,-31.08013 v -8.12903 h 8.129033 8.129032 v -2.10753 -2.10753 h -8.129032 -8.129033 v -4.61648 -4.61649 h 9.433692 9.433692 V 97.943043 95.835516 H 83.999056 71.956045 v 16.960574 16.96057 h 2.609319 2.609319 z M 144.51518,83.993222 V 82.487846 H 83.999056 23.482928 l -0.06051,1.283518 c -0.03328,0.705935 -0.01348,1.406083 0.04401,1.555884 0.08775,0.228665 9.807373,0.264262 60.576638,0.221859 l 60.472114,-0.05051 z M 82.393321,71.9443 c 4.200038,-0.439802 6.492466,-1.437961 8.942211,-3.893575 1.351659,-1.354899 1.78692,-1.965355 2.657916,-3.727754 1.668439,-3.375961 1.922205,-4.594882 1.922205,-9.232975 0,-4.556061 -0.262046,-5.884028 -1.762514,-8.931899 -1.835949,-3.729323 -4.74598,-6.146118 -8.672311,-7.202401 -1.640332,-0.44129 -5.393207,-0.715804 -9.8617,-0.72136 l -3.663083,-0.0046 v 16.960573 16.960573 l 4.265233,-0.0035 c 2.345879,-0.002 5.123298,-0.09333 6.172043,-0.20315 z"
       id="path30"
       transform="scale(0.26458334)" />
    <path
       style="fill:#ececec;stroke:#000000;stroke-width:0.385376"
       d="m 77.475759,152.21429 c -13.513095,-1.43799 -25.612712,-6.33502 -35.985403,-14.56424 -3.887281,-3.08399 -8.801917,-8.03944 -11.710125,-11.80737 -5.121891,-6.63601 -9.26885,-14.84031 -11.5806,-22.91092 -1.769117,-6.176212 -2.448045,-10.673912 -2.586088,-17.132086 -0.157472,-7.367119 0.269409,-11.541468 1.839156,-17.984571 2.518641,-10.337893 7.628853,-20.36461 14.26006,-27.979587 1.998694,-2.295209 7.494419,-7.688694 9.438249,-9.262664 10.299949,-8.340138 23.727709,-13.731434 36.969174,-14.843263 3.492339,-0.293236 12.026771,-0.117142 14.871029,0.306839 12.414829,1.850627 22.926259,6.24695 32.857309,13.742319 2.35895,1.780401 8.00692,7.248578 10.61694,10.278971 5.46572,6.34605 10.26697,15.025324 12.84296,23.216361 1.34252,4.26893 2.53178,10.11302 2.92966,14.396562 0.26385,2.840573 0.26385,9.804589 0,12.645162 -0.42242,4.547766 -1.64251,10.394707 -3.12904,14.995067 -2.59873,8.04228 -7.77713,17.22228 -13.04471,23.12499 -2.64894,2.96834 -8.05876,8.14279 -10.21581,9.77134 -10.34513,7.81046 -21.28324,12.26338 -34.009398,13.84526 -3.333686,0.41438 -11.161311,0.50257 -14.363363,0.16183 z M 77.3754,121.82835 v -8.12904 h 8.129032 8.129033 v -2.30824 -2.30824 H 85.504432 77.3754 v -4.41577 -4.41577 h 9.433692 9.433692 V 97.943043 95.634799 H 83.999056 71.755329 v 17.161291 17.16129 H 74.565364 77.3754 Z M 144.81626,83.993222 V 82.18677 H 83.999056 23.181852 v 1.692762 c 0,1.692567 6.4e-5,1.69277 0.551972,1.776378 0.303584,0.04599 27.671326,0.09715 60.817203,0.11369 l 60.265233,0.03007 z M 85.00264,71.860688 c 2.563608,-0.576774 4.590784,-1.695749 6.509888,-3.593372 1.476381,-1.459854 1.805661,-1.926406 2.790542,-3.953875 1.685116,-3.468967 1.817806,-4.139245 1.825899,-9.223445 0.008,-5.019852 -0.130321,-5.753261 -1.688857,-8.955315 C 93.673568,44.559793 93.117428,43.748999 91.961947,42.521778 88.547968,38.89583 85.49476,38.029065 76.136239,38.029065 h -4.38091 v 17.181374 17.181373 l 5.870967,-0.09622 c 4.499359,-0.07374 6.222662,-0.175344 7.376344,-0.434904 z"
       id="path32"
       transform="scale(0.26458334)" />
    <path
       style="fill:#ececec;stroke:#000000;stroke-width:0.385376"
       d="M 75.970382,55.190158 V 42.181781 l 3.060932,0.135247 c 1.683513,0.07439 3.69319,0.268131 4.46595,0.430543 3.105749,0.652741 5.656735,2.592092 6.994325,5.317336 1.053938,2.147323 1.395888,3.95919 1.382656,7.326165 -0.01792,4.559701 -0.931438,7.245986 -3.243459,9.537699 -2.297591,2.277409 -4.272629,2.930683 -9.499113,3.141967 l -3.161291,0.127797 z"
       id="path34"
       transform="scale(0.26458334)" />
    <path
       transform="scale(0.26458334)"
       style="fill:#ececec;stroke:#000000;stroke-width:0.385376"
       d="m 75.267873,151.64916 c -13.93909,-2.12694 -25.538791,-7.30165 -35.40674,-15.7952 -11.120793,-9.57189 -18.506905,-21.54635 -22.087802,-35.80903 -1.490023,-5.934746 -1.696842,-7.906612 -1.704636,-16.252425 -0.0063,-6.796973 0.02713,-7.521894 0.463469,-10.035842 2.17977,-12.558686 7.223204,-23.848605 14.650507,-32.795719 2.021233,-2.434828 8.072667,-8.404732 10.522153,-10.380391 9.717553,-7.837797 22.633987,-13.10337 35.428785,-14.443062 1.472599,-0.15419 4.397822,-0.20141 8.424481,-0.135991 5.478018,0.089 6.503164,0.159006 9.157499,0.625365 10.262551,1.803097 19.069751,5.317325 27.563361,10.998262 3.29073,2.201 5.88278,4.4046 9.87063,8.39141 6.11197,6.110371 9.74393,11.200329 13.36701,18.733026 3.02057,6.280024 4.5512,11.233858 5.96582,19.308175 0.41953,2.394622 0.45724,3.212122 0.45822,9.935484 0.001,7.15972 -0.0119,7.399127 -0.56816,10.537634 -1.63387,9.217874 -4.04661,15.975884 -8.42001,23.584234 -3.54794,6.17228 -7.00771,10.4373 -12.98925,16.01239 -4.82302,4.4953 -9.24256,7.59825 -15.05032,10.56681 -6.49207,3.31833 -12.43184,5.26424 -20.325561,6.65879 -2.862531,0.50572 -3.511204,0.54483 -9.986122,0.60223 -5.916037,0.0524 -7.275582,0.008 -9.333334,-0.30615 z m 2.308244,-29.6201 v -8.12903 h 8.129032 8.129033 v -2.50896 -2.50896 H 85.705149 77.576117 V 104.66706 100.452 H 87.009809 96.4435 V 97.943043 95.434082 H 83.999056 71.554612 v 17.362008 17.36201 h 3.010752 3.010753 z M 145.01698,83.993222 V 81.986054 H 83.999056 22.981136 v 1.890084 c 0,1.324261 0.07511,1.92039 0.250896,1.991322 0.137992,0.05568 27.596057,0.108369 61.01792,0.117084 l 60.767028,0.01585 z M 83.097799,72.350856 c 3.742406,-0.341259 6.157806,-1.4511 8.734882,-4.013548 1.663616,-1.654172 2.9035,-3.77177 3.940377,-6.729773 0.556538,-1.587686 0.560835,-1.638522 0.559542,-6.617897 -0.0012,-4.729726 -0.02792,-5.092851 -0.464828,-6.322581 -1.537047,-4.326246 -4.217924,-7.634921 -7.452945,-9.19825 -2.680716,-1.295459 -3.831884,-1.464388 -10.788531,-1.583161 l -6.071684,-0.103664 v 17.45194 17.451941 l 4.767025,-0.0759 c 2.621864,-0.04175 5.671136,-0.158342 6.776162,-0.259107 z"
       id="path36"
       inkscape:export-xdpi="300"
       inkscape:export-ydpi="300" />
  </g>
</svg>
